<svg width="21" height="20" viewBox="0 0 21 20" fill="none" xmlns="http://www.w3.org/2000/svg">
<g clip-path="url(#clip0_5_288)">
<path fill-rule="evenodd" clip-rule="evenodd" d="M10.2511 20C15.7588 20 20.2511 15.5077 20.2511 10C20.2511 4.4923 15.7588 0 10.2511 0C4.7434 0 0.251099 4.4923 0.251099 10C0.251099 15.5077 4.7434 20 10.2511 20Z" fill="#F34235"/>
<path d="M14.5602 6.69568H5.942C5.89333 6.69568 5.84692 6.71572 5.81344 6.75095C5.77973 6.78646 5.76223 6.83388 5.76477 6.88255L6.21762 15.6204C6.23766 16.0092 6.55817 16.3137 6.94762 16.3137H13.5545C13.944 16.3137 14.2645 16.0092 14.2845 15.6204L14.7374 6.88255C14.7399 6.83388 14.7224 6.78646 14.6887 6.75095C14.6553 6.71572 14.6089 6.69568 14.5602 6.69568ZM7.43778 8.4572C7.4345 8.33829 7.47786 8.22493 7.56 8.13822C7.64215 8.0515 7.75297 8.00181 7.87188 7.99825C8.11934 7.99318 8.32473 8.18739 8.33184 8.43286L8.49641 14.5666C8.49997 14.6853 8.45661 14.7989 8.37418 14.8859C8.29204 14.9724 8.18098 15.022 8.0618 15.0256H8.04864C7.93426 15.0256 7.82598 14.9822 7.74207 14.9026C7.65563 14.8205 7.6059 14.7097 7.60262 14.591L7.43778 8.4572ZM9.80407 14.5719V8.43739C9.80407 8.19068 10.0047 7.99009 10.2511 7.99009C10.4975 7.99009 10.6981 8.19068 10.6981 8.43739V14.5719C10.6981 14.8189 10.4975 15.0197 10.2511 15.0197C10.0047 15.0197 9.80407 14.8189 9.80407 14.5719ZM12.8996 14.5904C12.8963 14.7096 12.8466 14.8204 12.7601 14.9026C12.6762 14.9822 12.5679 15.0256 12.4536 15.0256H12.4396C12.3207 15.022 12.2099 14.9723 12.128 14.8856C12.0456 14.7986 12.0022 14.6853 12.0057 14.5661L12.1703 8.43337C12.1774 8.18767 12.3813 7.99216 12.6272 7.99825H12.6303C12.7492 8.00181 12.86 8.0515 12.9422 8.13822C13.0243 8.22493 13.0677 8.33829 13.0644 8.4572L12.8996 14.5904ZM15.4464 5.32868V5.79931H5.05579V5.32868C5.05579 5.06904 5.267 4.85782 5.52665 4.85782H8.94446C9.03497 4.85782 9.11106 4.78962 9.12094 4.69958C9.18411 4.12197 9.66993 3.68634 10.2511 3.68634C10.8323 3.68634 11.3181 4.12197 11.3813 4.69958C11.3911 4.78958 11.4672 4.85782 11.5577 4.85782H14.9756C15.2352 4.85782 15.4464 5.06904 15.4464 5.32868Z" fill="white"/>
</g>
<defs>
<clipPath id="clip0_5_288">
<rect width="20" height="20" fill="white" transform="translate(0.251099)"/>
</clipPath>
</defs>
</svg>
