<svg width="21" height="20" viewBox="0 0 21 20" fill="none" xmlns="http://www.w3.org/2000/svg">
<path d="M10.2508 0C4.72823 0 0.25116 4.4774 0.25116 9.9998C0.25116 15.5222 4.72823 20 10.2508 20C15.7734 20 20.251 15.5225 20.251 9.9998C20.251 4.47713 15.7734 0 10.2508 0ZM15.0046 7.19633L14.0548 8.14613L12.1214 6.21287L11.3879 6.94633L13.3213 8.87973L8.57916 13.6215L6.64589 11.6884L5.91243 12.4219L7.84569 14.3551L7.37316 14.8277L7.36416 14.8187C7.31176 14.9049 7.22656 14.9679 7.12536 14.9903L5.32249 15.3923C5.29549 15.3984 5.26803 15.4013 5.24089 15.4013C5.14249 15.4013 5.04689 15.3626 4.97603 15.2915C4.88509 15.2009 4.84723 15.0701 4.87523 14.9447L5.27703 13.1423C5.29969 13.0412 5.36276 12.9558 5.44889 12.9035L5.43976 12.8944L13.0711 5.26273C13.183 5.15107 13.3647 5.15107 13.4766 5.26307L15.0047 6.79087C15.1166 6.90273 15.1166 7.08447 15.0046 7.19633Z" fill="black"/>
</svg>
