<svg width="14" height="20" viewBox="0 0 14 20" fill="none" xmlns="http://www.w3.org/2000/svg">
<path d="M6.51254 6.24803C8.39788 6.24803 9.93188 4.84668 9.93188 3.12411C9.93188 1.40135 8.39788 0 6.51254 0C4.62719 0 3.0932 1.40135 3.0932 3.12411C3.0932 4.84668 4.62698 6.24803 6.51254 6.24803Z" fill="black"/>
<path d="M6.51254 6.24803C8.39788 6.24803 9.93188 4.84668 9.93188 3.12411C9.93188 1.40135 8.39788 0 6.51254 0C4.62719 0 3.0932 1.40135 3.0932 3.12411C3.0932 4.84668 4.62698 6.24803 6.51254 6.24803Z" fill="#E330C7"/>
<path d="M12.9774 18.3812L10.7813 10.7917C10.2697 9.02341 8.51426 7.78845 6.51253 7.78845C4.5108 7.78845 2.75516 9.02341 2.24354 10.7917L0.0476834 18.3812C-0.0652101 18.771 0.0245369 19.1778 0.293778 19.4972C0.563019 19.8167 0.970484 20 1.4118 20H11.613C12.0544 20 12.4618 19.8167 12.7311 19.4972C13.0003 19.1778 13.09 18.771 12.9774 18.3812Z" fill="black"/>
<path d="M12.9774 18.3812L10.7813 10.7917C10.2697 9.02341 8.51426 7.78845 6.51253 7.78845C4.5108 7.78845 2.75516 9.02341 2.24354 10.7917L0.0476834 18.3812C-0.0652101 18.771 0.0245369 19.1778 0.293778 19.4972C0.563019 19.8167 0.970484 20 1.4118 20H11.613C12.0544 20 12.4618 19.8167 12.7311 19.4972C13.0003 19.1778 13.09 18.771 12.9774 18.3812Z" fill="#E330C7"/>
</svg>
