<svg width="67" height="67" viewBox="0 0 67 67" fill="none" xmlns="http://www.w3.org/2000/svg">
<path d="M33.5 63.0625C17.1925 63.0625 3.9375 49.8075 3.9375 33.5C3.9375 17.1925 17.1925 3.9375 33.5 3.9375C49.8075 3.9375 63.0625 17.1925 63.0625 33.5C63.0625 49.8075 49.8075 63.0625 33.5 63.0625ZM33.5 8.0625C19.475 8.0625 8.0625 19.475 8.0625 33.5C8.0625 47.525 19.475 58.9375 33.5 58.9375C47.525 58.9375 58.9375 47.525 58.9375 33.5C58.9375 19.475 47.525 8.0625 33.5 8.0625Z" fill="white"/>
<path d="M33.5 38.3125C32.3725 38.3125 31.4375 37.3775 31.4375 36.25V22.5C31.4375 21.3725 32.3725 20.4375 33.5 20.4375C34.6275 20.4375 35.5625 21.3725 35.5625 22.5V36.25C35.5625 37.3775 34.6275 38.3125 33.5 38.3125Z" fill="white"/>
<path d="M33.5 47.25C33.1425 47.25 32.785 47.1675 32.455 47.03C32.125 46.8925 31.8225 46.7 31.5475 46.4525C31.3 46.1775 31.1075 45.9025 30.97 45.545C30.8325 45.215 30.75 44.8575 30.75 44.5C30.75 44.1425 30.8325 43.785 30.97 43.455C31.1075 43.125 31.3 42.8225 31.5475 42.5475C31.8225 42.3 32.125 42.1075 32.455 41.97C33.115 41.695 33.885 41.695 34.545 41.97C34.875 42.1075 35.1775 42.3 35.4525 42.5475C35.7 42.8225 35.8925 43.125 36.03 43.455C36.1675 43.785 36.25 44.1425 36.25 44.5C36.25 44.8575 36.1675 45.215 36.03 45.545C35.8925 45.9025 35.7 46.1775 35.4525 46.4525C35.1775 46.7 34.875 46.8925 34.545 47.03C34.215 47.1675 33.8575 47.25 33.5 47.25Z" fill="white"/>
</svg>
