<svg width="67" height="67" viewBox="0 0 67 67" fill="none" xmlns="http://www.w3.org/2000/svg">
<g clip-path="url(#clip0_29_4027)">
<path fill-rule="evenodd" clip-rule="evenodd" d="M33.0265 55.9883V59.2775C33.0265 61.9152 31.7119 64.1923 29.4275 65.511C28.3285 66.1455 27.1018 66.4995 25.83 66.5001C24.5571 66.5008 23.3308 66.1462 22.231 65.511L7.60577 57.0672C5.32116 55.7482 4.00684 53.4717 4.00684 50.8336V7.69787C4.00684 3.72871 7.23568 0.5 11.2047 0.5H43.4146C47.3839 0.5 50.613 3.72846 50.613 7.69787V16.7908C50.613 18.0952 49.5539 19.1543 48.2495 19.1543C46.9447 19.1543 45.8865 18.0953 45.8865 16.7908V7.69787C45.8865 6.33494 44.7776 5.22596 43.4146 5.22596H15.1904L29.4275 13.4472C31.7111 14.7659 33.0265 17.0424 33.0265 19.6794V51.2619H43.4146C44.7774 51.2619 45.8865 50.1535 45.8865 48.7905V40.8194C45.8865 39.5141 46.9441 38.4559 48.2495 38.4559C49.5544 38.4559 50.613 39.5144 50.613 40.8194V48.7905C50.613 52.7599 47.3839 55.9883 43.4146 55.9883H33.0265ZM54.9254 30.6071L52.3227 33.2098C51.3999 34.1327 51.4001 35.6288 52.3227 36.5517C52.7669 36.9962 53.3656 37.2432 53.9937 37.2432C54.6225 37.2432 55.2205 36.9968 55.6654 36.5517L62.3013 29.9146C63.2239 28.9919 63.224 27.4966 62.3013 26.5739L55.6654 19.9378C54.7424 19.0148 53.2462 19.0152 52.3228 19.9376C51.4002 20.8596 51.4005 22.3563 52.3228 23.2785L54.9254 25.8806H37.4896C36.1839 25.8806 35.1266 26.9387 35.1266 28.2442C35.1266 29.5498 36.184 30.6072 37.4896 30.6072H54.9254V30.6071Z" fill="white"/>
</g>
<defs>
<clipPath id="clip0_29_4027">
<rect width="66" height="66" fill="white" transform="translate(0.5 0.5)"/>
</clipPath>
</defs>
</svg>
