<svg width="14" height="20" viewBox="0 0 14 20" fill="none" xmlns="http://www.w3.org/2000/svg">
<path d="M6.56519 6.2989C8.46582 6.2989 10.0123 4.88599 10.0123 3.14945C10.0123 1.41292 8.46582 0 6.56519 0C4.66455 0 3.11811 1.41292 3.11811 3.14945C3.11811 4.88599 4.66433 6.2989 6.56519 6.2989Z" fill="#6591FF"/>
<path d="M11.7071 7.68939H1.42333C0.978436 7.68939 0.567447 7.87423 0.296242 8.19623C0.0248171 8.51824 -0.0656578 8.92834 0.0479311 9.32134L2.26182 16.9724C2.77759 18.755 4.54724 20 6.56521 20C8.58317 20 10.3528 18.755 10.8686 16.9724L13.0825 9.32154C13.1961 8.92854 13.1058 8.51844 12.8344 8.19623C12.563 7.87423 12.1522 7.68939 11.7071 7.68939Z" fill="#6591FF"/>
</svg>
