<svg width="22" height="22" viewBox="0 0 22 22" fill="none" xmlns="http://www.w3.org/2000/svg">
<path d="M13.8552 4.31735C14.0772 3.88164 14.6138 3.70443 15.0222 3.97333C16.2614 4.78919 17.2538 5.93827 17.8799 7.29626C18.63 8.92342 18.8105 10.7557 18.3922 12.498C17.9739 14.2402 16.9813 15.7909 15.5742 16.9002C14.1671 18.0094 12.4275 18.6127 10.6358 18.6127C8.84403 18.6127 7.10446 18.0094 5.69737 16.9002C4.29028 15.7909 3.29762 14.2402 2.87935 12.498C2.46107 10.7558 2.64153 8.92343 3.39166 7.29627C4.0177 5.93828 5.01009 4.7892 6.2493 3.97334C6.65773 3.70444 7.19432 3.88165 7.41633 4.31736C7.63833 4.75307 7.46037 5.28138 7.06066 5.56308C6.17218 6.18925 5.45924 7.04116 4.99985 8.03765C4.41625 9.30359 4.27585 10.7291 4.60127 12.0846C4.92669 13.4401 5.69898 14.6465 6.7937 15.5095C7.88841 16.3725 9.2418 16.8418 10.6358 16.8418C12.0298 16.8418 13.3831 16.3725 14.4779 15.5095C15.5726 14.6465 16.3449 13.44 16.6703 12.0846C16.9957 10.7291 16.8553 9.30357 16.2717 8.03764C15.8123 7.04115 15.0993 6.18924 14.2109 5.56308C13.8112 5.28137 13.6332 4.75306 13.8552 4.31735Z" fill="#999999"/>
<path fill-rule="evenodd" clip-rule="evenodd" d="M10.6358 1.77271C11.1253 1.77271 11.5221 2.16952 11.5221 2.65902V7.09059C11.5221 7.58009 11.1253 7.9769 10.6358 7.9769C10.1463 7.9769 9.74951 7.58009 9.74951 7.09059V2.65902C9.74951 2.16952 10.1463 1.77271 10.6358 1.77271Z" fill="#999999"/>
</svg>
