<svg width="17" height="17" viewBox="0 0 17 17" fill="none" xmlns="http://www.w3.org/2000/svg">
<path d="M15.2401 14.4768C15.1468 14.5687 15.0211 14.6204 14.8901 14.6206C14.7574 14.62 14.6299 14.5686 14.5339 14.4768L11.8339 11.7706C10.6968 12.7257 9.23479 13.205 7.75289 13.1084C6.271 13.0118 4.8836 12.3469 3.88005 11.2522C2.8765 10.1576 2.33429 8.71778 2.3665 7.23309C2.39871 5.7484 3.00286 4.33346 4.05294 3.28338C5.10302 2.2333 6.51796 1.62915 8.00265 1.59694C9.48734 1.56473 10.9271 2.10694 12.0218 3.11049C13.1164 4.11403 13.7814 5.50144 13.8779 6.98333C13.9745 8.46523 13.4953 9.9272 12.5401 11.0643L15.2401 13.7643C15.2874 13.8109 15.3249 13.8663 15.3505 13.9275C15.3761 13.9886 15.3893 14.0543 15.3893 14.1206C15.3893 14.1869 15.3761 14.2525 15.3505 14.3137C15.3249 14.3749 15.2874 14.4303 15.2401 14.4768ZM8.14014 12.1206C9.0796 12.1206 9.99797 11.842 10.7791 11.3201C11.5602 10.7981 12.1691 10.0563 12.5286 9.18833C12.8881 8.32038 12.9822 7.36531 12.7989 6.4439C12.6156 5.52249 12.1632 4.67612 11.4989 4.01182C10.8346 3.34752 9.98823 2.89513 9.06682 2.71185C8.14541 2.52857 7.19034 2.62264 6.3224 2.98215C5.45445 3.34167 4.7126 3.95049 4.19066 4.73162C3.66872 5.51276 3.39014 6.43112 3.39014 7.37058C3.3918 8.62985 3.89277 9.83707 4.78321 10.7275C5.67365 11.618 6.88087 12.1189 8.14014 12.1206Z" fill="#212224"/>
</svg>
