<svg width="24" height="24" viewBox="0 0 24 24" fill="none" xmlns="http://www.w3.org/2000/svg">
<path d="M18.6509 15.5272C17.6069 14.7337 16.3544 14.157 14.9887 13.8112C16.7204 12.5925 17.8882 10.3575 17.8882 7.79925C17.8882 7.46325 17.8604 7.1265 17.8199 6.7905L18.7319 6.393V8.81175C18.7319 9.1845 19.0342 9.48675 19.4069 9.48675C19.7797 9.48675 20.0819 9.1845 20.0819 8.81175V5.67075C20.2417 5.4795 20.3429 5.24175 20.3429 4.98225C20.3429 4.55175 20.0879 4.16175 19.6934 3.99L12.8204 0.995999C12.2984 0.768749 11.7007 0.768749 11.1802 0.995999L4.30719 3.99C3.91194 4.16175 3.65694 4.55175 3.65694 4.98225C3.65694 5.41275 3.91194 5.80275 4.30719 5.9745L6.17769 6.78975C6.13794 7.12125 6.11244 7.45425 6.11244 7.8C6.11244 10.3567 7.27869 12.5917 9.00894 13.8105C7.64169 14.1555 6.38844 14.733 5.34669 15.5272C4.24719 16.3635 3.59094 17.7262 3.59094 19.1715V21.1267C3.59094 22.2563 4.50969 23.1742 5.63769 23.1742H18.3614C19.4902 23.1742 20.4082 22.257 20.4082 21.1305V19.173C20.4089 17.7285 19.7519 16.3657 18.6509 15.5272ZM7.46244 7.8C7.46244 7.65 7.48569 7.509 7.49469 7.3635L11.1802 8.96925C11.4404 9.0825 11.7202 9.1395 11.9999 9.1395C12.2797 9.1395 12.5594 9.08325 12.8204 8.96925L16.5187 7.35825C16.5277 7.50525 16.5374 7.6515 16.5374 7.8C16.5374 10.9095 14.5019 13.44 11.9999 13.44C9.49794 13.44 7.46244 10.9095 7.46244 7.8ZM10.4474 14.8995C10.9522 14.829 11.4689 14.79 11.9962 14.79C12.5212 14.79 13.0372 14.829 13.5397 14.8987L11.9954 17.3332L10.4474 14.8995Z" fill="#1F7BF4"/>
</svg>
